<svg width="50" height="50" viewBox="0 0 50 50" fill="none" xmlns="http://www.w3.org/2000/svg">
<g clip-path="url(#clip0_335_159)">
<rect width="50" height="50" fill="#1B253C"/>
<mask id="mask0_335_159" style="mask-type:alpha" maskUnits="userSpaceOnUse" x="-3" y="4" width="56" height="56">
<rect x="-3" y="4" width="56" height="56" fill="#D9D9D9"/>
</mask>
<g mask="url(#mask0_335_159)">
<path d="M25 32C22.4333 32 20.2361 31.0861 18.4083 29.2583C16.5805 27.4305 15.6666 25.2333 15.6666 22.6666C15.6666 20.1 16.5805 17.9028 18.4083 16.075C20.2361 14.2472 22.4333 13.3333 25 13.3333C27.5666 13.3333 29.7639 14.2472 31.5916 16.075C33.4194 17.9028 34.3333 20.1 34.3333 22.6666C34.3333 25.2333 33.4194 27.4305 31.5916 29.2583C29.7639 31.0861 27.5666 32 25 32ZM6.33331 50.6666V44.1333C6.33331 42.8111 6.67359 41.5958 7.35415 40.4875C8.0347 39.3791 8.93887 38.5333 10.0666 37.95C12.4778 36.7444 14.9278 35.8403 17.4166 35.2375C19.9055 34.6347 22.4333 34.3333 25 34.3333C27.5666 34.3333 30.0944 34.6347 32.5833 35.2375C35.0722 35.8403 37.5222 36.7444 39.9333 37.95C41.0611 38.5333 41.9653 39.3791 42.6458 40.4875C43.3264 41.5958 43.6666 42.8111 43.6666 44.1333V50.6666H6.33331Z" fill="#A855F7"/>
</g>
</g>
<defs>
<clipPath id="clip0_335_159">
<rect width="50" height="50" fill="white"/>
</clipPath>
</defs>
</svg>
